# xmcd
#
# Track frame offsets: 
#        183
#        16795
#        42790
#        60275
#
# Disc length: 1189 seconds
#
# Revision: 0
# Processed by: cddbd v1.5.2PL0 Copyright (c) Steve Scherf et al.
# Submitted via: ExactAudioCopy v1.0b1
#
DISCID=2004a304
DTITLE=Beckie Bell - In The Name Of Love CDM
DYEAR=1994
DGENRE=Eurodance
TTITLE0=In The Name Of Love (Byte Single Mix)
TTITLE1=In The Name Of Love (Byte Extended Mix)
TTITLE2=In The Name Of Love (Tune Top Single Mix)
TTITLE3=In The Name Of Love (Tune Top Extended Version)
EXTD=
EXTT0=
EXTT1=
EXTT2=
EXTT3=
PLAYORDER=
